<svg xmlns="http://www.w3.org/2000/svg" data-name="Layer 2" viewBox="0 0 643.89 89.02"><g data-name="Layer 1"><path d="M606.93 29.23c2.17 0 5.68.42 10.57 1.28.99.16 1.81.24 2.45.24.73 0 2.17-.34 4.27-1.06.99-.34 1.83-.52 2.54-.52 1.99 0 3.98 1.16 6.01 3.45 1.64 1.84 2.98 3.83 4.02 6.02 1.04 2.17 1.55 4.07 1.55 5.67s-.6 2.85-1.81 3.89c-1.22 1.02-2.72 1.54-4.53 1.54-1.5 0-2.85-.32-4.05-.98-1.19-.68-3.1-2.13-5.73-4.39-2.76-2.41-5.06-3.63-6.87-3.63-1.22 0-2.25.4-3.14 1.2-.88.8-1.33 1.76-1.33 2.83 0 1.92 2.03 3.71 6.08 5.39 7.3 2.95 12.89 6.18 16.78 9.7 3.29 2.97 4.93 6.58 4.93 10.87 0 5.43-2.63 9.93-7.91 13.57-4.53 3.15-10.08 4.73-16.65 4.73-1.68 0-4.73-.26-9.2-.76-4.18-.42-6.52-.64-7.05-.64s-1.22.06-1.95.18c-1.24.14-2.14.22-2.72.22-2.03 0-3.63-.46-4.8-1.4-1.77-1.44-3.4-3.71-4.91-6.8-1.53-3.11-2.28-5.77-2.28-7.98 0-3.59 1.55-5.39 4.66-5.39 1.22 0 2.32.36 3.34 1.08 1.02.74 3.14 2.65 6.39 5.77 1.77 1.72 3.23 2.89 4.4 3.53 1.17.64 2.41.98 3.76.98 1.41 0 2.56-.34 3.43-1.04.86-.68 1.3-1.58 1.3-2.71 0-1.76-1.68-3.35-5-4.79-6.96-3.07-11.98-6.26-15.05-9.54-3.09-3.27-4.64-7.04-4.64-11.33 0-4.63 1.59-8.64 4.73-11.99 4.49-4.79 10.63-7.18 18.39-7.18M538.49 63c-1.9 0-3.56.7-4.95 2.11-1.41 1.4-2.1 3.07-2.1 5.03s.49 3.37 1.48 4.53c.99 1.14 2.3 1.72 3.96 1.72 3.45 0 5.17-2.63 5.17-7.88 0-2.15-.24-3.59-.75-4.33-.49-.74-1.44-1.14-2.81-1.18Zm4.33-33.83c7.52 0 13.88 1.72 19.1 5.15 2.76 1.84 4.71 3.93 5.81 6.28 1.08 2.35 1.64 5.61 1.64 9.74l-.13 8.7c0 6.04.49 9.95 1.44 11.75.46.86.93 1.4 1.37 1.64.42.24 1.33.44 2.72.64 1.37.2 2.06 1.02 2.06 2.45 0 1.88-.82 3.83-2.5 5.85-1.66 2.03-3.8 3.73-6.43 5.09-3.25 1.72-6.63 2.57-10.17 2.57-4.53 0-8.11-1.4-10.74-4.21-.91-1.02-1.75-1.52-2.54-1.52-.86 0-1.99.48-3.43 1.46-4.31 2.85-9.22 4.27-14.7 4.27s-10.23-1.1-13.73-3.27c-2.28-1.44-4.11-3.33-5.44-5.65-1.35-2.31-2.01-4.73-2.01-7.26 0-4.07 1.81-7.64 5.44-10.77 5.66-4.91 14.13-7.38 25.4-7.42 2.5 0 4.07-.22 4.73-.66.64-.46.95-1.5.95-3.13 0-4.13-.46-7.12-1.41-8.98-.95-1.84-2.5-2.77-4.66-2.77-1.3 0-2.45.36-3.47 1.06-1.02.7-2.28 1.97-3.78 3.85-3.85 4.95-7.87 7.42-12.05 7.42-2.12 0-3.85-.56-5.17-1.7-1.35-1.12-2.01-2.61-2.01-4.43s.82-3.75 2.5-5.63c1.66-1.86 3.91-3.49 6.76-4.91 7.8-3.73 15.96-5.61 24.47-5.61Zm-60.59 15.38V64.3c0 2.33.62 4.25 1.9 5.73 1.28 1.48 2.9 2.21 4.89 2.21 1.68 0 3.91-.7 6.68-2.09.64-.36 1.3-.54 1.95-.54 1.04 0 1.99.58 2.85 1.7.86 1.14 1.28 2.37 1.28 3.69 0 2.41-1.46 4.73-4.4 6.96-6.12 4.71-13.55 7.06-22.28 7.06-6.9 0-12.45-1.76-16.65-5.29-4.18-3.53-6.28-8.18-6.28-13.94V42.8c0-.9-.11-1.46-.35-1.68-.24-.22-.84-.32-1.83-.32h-6.68c-1.26 0-2.06-.18-2.41-.56-.33-.36-.51-1.24-.51-2.59v-2.57c.04-1.18.53-2.03 1.48-2.57l29.67-16.84c.73-.34 1.64-.52 2.72-.52h5.26c1.06 0 1.79.22 2.17.68.35.44.55 1.34.55 2.65v7.88c0 1.18.2 1.94.6 2.29.42.34 1.3.52 2.63.52h11.98c1.59 0 2.63.26 3.12.8.46.52.71 1.64.71 3.35v3.45c0 1.88-.31 3.17-.91 3.89-.6.72-1.7 1.08-3.32 1.08h-11.72c-1.19 0-2.03.2-2.45.58-.44.4-.64 1.14-.64 2.23Zm-76.18-15.32c2.17 0 5.68.42 10.57 1.28.99.16 1.81.24 2.45.24.73 0 2.17-.34 4.27-1.06.99-.34 1.83-.52 2.54-.52 1.99 0 3.98 1.16 6.01 3.45 1.64 1.84 2.98 3.83 4.02 6.02 1.04 2.17 1.55 4.07 1.55 5.67s-.6 2.85-1.81 3.89c-1.22 1.02-2.72 1.54-4.53 1.54-1.5 0-2.85-.32-4.05-.98-1.19-.68-3.1-2.13-5.73-4.39-2.76-2.41-5.06-3.63-6.88-3.63-1.22 0-2.25.4-3.14 1.2-.88.8-1.33 1.76-1.33 2.83 0 1.92 2.03 3.71 6.08 5.39 7.29 2.95 12.89 6.18 16.78 9.7 3.29 2.97 4.93 6.58 4.93 10.87 0 5.43-2.63 9.93-7.91 13.57-4.53 3.15-10.08 4.73-16.65 4.73-1.68 0-4.73-.26-9.2-.76-4.18-.42-6.52-.64-7.05-.64s-1.22.06-1.95.18c-1.24.14-2.14.22-2.72.22-2.03 0-3.63-.46-4.8-1.4-1.77-1.44-3.4-3.71-4.91-6.8-1.53-3.11-2.28-5.77-2.28-7.98 0-3.59 1.55-5.39 4.66-5.39 1.22 0 2.32.36 3.34 1.08 1.02.74 3.14 2.65 6.39 5.77 1.77 1.72 3.23 2.89 4.4 3.53 1.17.64 2.41.98 3.76.98 1.42 0 2.56-.34 3.43-1.04.86-.68 1.3-1.58 1.3-2.71 0-1.76-1.68-3.35-5-4.79-6.96-3.07-11.98-6.26-15.05-9.54-3.1-3.27-4.64-7.04-4.64-11.33 0-4.63 1.59-8.64 4.73-11.99 4.49-4.79 10.63-7.18 18.39-7.18ZM356.04 7.66c3.76 0 6.74.64 8.93 1.9 2.21 1.28 3.32 2.97 3.32 5.13 0 2.99-1.66 5.37-5 7.12-5.26 2.77-11.63 4.15-19.1 4.15-3.16 0-5.66-.54-7.52-1.64-2.5-1.4-3.76-3.35-3.76-5.85 0-3.35 2.65-5.98 7.98-7.9 5.39-1.94 10.43-2.91 15.14-2.91Zm12.82 25.6v33.95c0 2.69.27 4.67.82 5.9.53 1.26 1.64 2.39 3.27 3.45 1.33.86 2.23 1.6 2.68 2.19.46.6.69 1.38.69 2.31 0 5.03-7.05 7.54-21.18 7.54-7.6 0-13.62-.56-18.06-1.64-1.53-.4-2.74-1.08-3.67-2.05-.93-.98-1.39-2.07-1.39-3.33 0-1.06.24-1.88.71-2.45.49-.58 1.7-1.52 3.65-2.81 1.33-.9 2.28-2.35 2.83-4.37.57-2.03.86-5.05.86-9.06 0-1.3-.11-3.71-.31-7.22-.18-3.53-.33-5.59-.42-6.16-.24-1.6-1.46-2.83-3.63-3.69-2.67-1.06-4-2.61-4-4.67 0-2.45 1.75-4.29 5.24-5.51 4.84-1.68 10.01-3.09 15.54-4.27 5.53-1.16 9.79-1.74 12.82-1.74 2.39 0 3.56 1.2 3.56 3.61Zm-46.42 17.53.91 20.57c.09 1.56.35 2.71.82 3.45.44.74 1.77 2.17 3.98 4.27.64.62.97 1.5.97 2.63 0 2.57-1.7 4.37-5.13 5.37-3.4 1.02-9.48 1.54-18.26 1.54-5.95 0-10.17-.48-12.62-1.42-2.54-.98-3.82-2.55-3.82-4.73 0-.78.13-1.36.4-1.72.24-.38 1.11-1.28 2.59-2.73 1.72-1.64 2.59-7.08 2.59-16.36 0-5.39-.69-9.36-2.08-11.93-1.13-2.05-3.18-3.09-6.21-3.09s-4.89.84-5.97 2.51c-1.06 1.68-1.61 4.71-1.61 9.12v11.57c0 2.29.18 3.87.49 4.73.33.86 1.39 2.51 3.21 4.97.49.72.71 1.52.71 2.41 0 2.29-1.77 3.99-5.31 5.07-3.54 1.1-9.06 1.64-16.58 1.66-12-.02-17.99-2.25-17.99-6.72 0-.94.18-1.66.55-2.13.35-.5 1.24-1.18 2.61-2.07 1.13-.74 1.83-1.6 2.14-2.55.31-.96.57-3.29.84-7.04.31-4.43.46-9.1.46-13.96 0-2.69-.24-4.45-.69-5.29-.46-.84-1.77-1.86-3.91-3.07-1.86-1.06-2.79-2.33-2.79-3.85s.75-2.83 2.26-3.83c1.53-1 4.62-2.25 9.33-3.77 4.16-1.34 8.13-2.45 11.98-3.37 3.85-.92 6.48-1.36 7.89-1.36 1.3 0 2.39.42 3.27 1.28.88.86 1.33 1.88 1.33 3.03 0 .12-.02.62-.04 1.48-.04.3-.07.58-.07.82 0 1.86.86 2.79 2.59 2.79 1.04 0 2.12-.74 3.29-2.21 3.71-4.83 9.11-7.24 16.2-7.24 5.44 0 10.1 1.28 13.97 3.85 2.72 1.84 4.62 3.99 5.7 6.46 1.08 2.47 1.75 6.1 2.01 10.89Zm-123.51-8.12c-1.9 0-3.4.64-4.55 1.89-1.15 1.28-1.72 2.95-1.72 5.05 0 2.35.49 5.53 1.46 9.56.97 4.05 2.12 7.62 3.47 10.73 1.33 3.19 3.51 4.79 6.54 4.79 3.85 0 5.77-2.19 5.77-6.6 0-3.27-.49-6.98-1.46-11.15s-2.17-7.56-3.54-10.17c-1.41-2.65-3.4-4.01-5.97-4.09Zm5.2-13.5c7.89 0 14.83 1.86 20.78 5.55 4.29 2.65 7.71 6.1 10.3 10.35 2.67 4.45 4.02 9.08 4.02 13.9 0 8.46-4.31 15.64-12.89 21.56-8.2 5.65-17.6 8.48-28.19 8.48s-18.66-2.65-25.05-7.94c-6.23-5.15-9.33-11.85-9.33-20.11 0-9.2 3.8-16.72 11.38-22.56 7.96-6.16 17.6-9.24 28.96-9.24Zm-79.1.42c2.3 0 3.69.28 4.18.88.51.58.95 2.45 1.35 5.61.2 1.72.88 2.57 1.99 2.57.86 0 1.7-.58 2.48-1.7 3.45-4.87 7.96-7.3 13.53-7.3 3.93 0 7.14 1.14 9.64 3.43 1.22 1.14 2.21 2.59 2.98 4.37.77 1.76 1.17 3.47 1.17 5.11 0 1.84-.49 3.71-1.41 5.65-.95 1.92-2.19 3.51-3.69 4.75-2.76 2.39-6.17 3.57-10.17 3.57-2.21 0-4.05-.34-5.55-1.06-1.48-.7-3.45-2.11-5.86-4.25-.91-.82-1.75-1.24-2.52-1.24-1.22 0-2.01.62-2.37 1.84-.38 1.24-.55 3.81-.55 7.76 0 5.86.24 9.89.71 12.03.31 1.18.73 1.97 1.26 2.43.55.44 1.7.9 3.47 1.36 3.89 1.06 5.84 2.89 5.84 5.51 0 1.6-.64 2.99-1.88 4.17-1.26 1.2-2.92 1.97-5 2.37-4.13.78-10.24 1.18-18.26 1.18s-13.44-.62-17.42-1.82c-3.54-1.1-5.31-2.99-5.31-5.67 0-2.03 1.28-3.85 3.87-5.45 1.26-.74 2.12-1.42 2.61-2.01.46-.6.8-1.44.97-2.49.68-3.53 1.02-10.09 1.02-19.69 0-1.76-.2-3.01-.64-3.77-.42-.76-1.28-1.38-2.59-1.84-3.07-1.1-4.6-2.67-4.6-4.73 0-1.88 1.06-3.49 3.16-4.83 2.12-1.34 5.66-2.67 10.63-4.01 6.65-1.8 12.31-2.69 16.96-2.73ZM48.83 6.03c6.3 0 12.38 1.24 18.26 3.73 2.76 1.18 4.69 1.76 5.77 1.76.77 0 2.01-.16 3.74-.52.57-.12 1.19-.18 1.88-.18 2.26 0 4.22.94 5.9 2.81 4.16 4.51 6.21 10.13 6.21 16.84 0 4.71-1.79 8.16-5.37 10.33-1.95 1.18-4.11 1.76-6.54 1.76-2.19 0-3.98-.42-5.37-1.28-1.37-.86-2.72-2.39-4.02-4.57-1.86-3.07-3.36-5.29-4.53-6.64-1.15-1.34-2.59-2.55-4.27-3.65-4.18-2.63-8.58-3.97-13.15-3.97s-7.98 1.46-10.59 4.35c-2.61 2.91-3.91 6.8-3.91 11.67 0 6.7 1.88 12.83 5.64 18.41 5.08 7.44 12.38 11.15 21.89 11.15 3.49 0 6.96-.52 10.39-1.58 3.45-1.06 6.1-2.41 8-4.09 1.64-1.4 2.98-2.09 4.02-2.09 1.5 0 2.81.62 3.89 1.9 1.06 1.26 1.61 2.79 1.61 4.59 0 2.25-.75 4.79-2.28 7.6-1.5 2.79-3.32 5.01-5.44 6.6-.91.66-2.79 1.24-5.64 1.76-1.64.26-3.82.98-6.54 2.15-6.39 2.77-13.02 4.15-19.94 4.15s-14.39-1.46-21.58-4.39c-8.31-3.39-14.9-8.58-19.74-15.6C2.37 62.2 0 55.08 0 47.64c0-8.66 2.96-16.54 8.93-23.68 5.17-6.18 11.94-10.91 20.27-14.2 6.34-2.49 12.89-3.73 19.63-3.73Z" style="fill:#231f20"/><path d="M609.16 24.49c2.17 0 5.68.42 10.57 1.28.99.16 1.81.24 2.45.24.73 0 2.17-.34 4.27-1.06.99-.34 1.83-.52 2.54-.52 1.99 0 3.98 1.16 6.01 3.45 1.64 1.84 2.98 3.83 4.02 6.02 1.04 2.17 1.55 4.07 1.55 5.67s-.6 2.85-1.81 3.89c-1.22 1.02-2.72 1.54-4.53 1.54-1.5 0-2.85-.32-4.05-.98-1.19-.68-3.09-2.13-5.73-4.39-2.76-2.41-5.06-3.63-6.87-3.63-1.22 0-2.26.4-3.14 1.2-.88.8-1.33 1.76-1.33 2.83 0 1.92 2.03 3.71 6.08 5.39 7.29 2.95 12.89 6.18 16.78 9.7 3.29 2.97 4.93 6.58 4.93 10.87 0 5.43-2.63 9.93-7.91 13.57-4.53 3.15-10.08 4.73-16.65 4.73-1.68 0-4.73-.26-9.2-.76-4.18-.42-6.52-.64-7.05-.64s-1.22.06-1.95.18c-1.24.14-2.14.22-2.72.22-2.03 0-3.63-.46-4.8-1.4-1.77-1.44-3.4-3.71-4.91-6.8-1.53-3.11-2.28-5.77-2.28-7.98 0-3.59 1.55-5.39 4.66-5.39 1.22 0 2.32.36 3.34 1.08 1.02.74 3.14 2.65 6.39 5.77 1.77 1.72 3.23 2.89 4.4 3.53 1.17.64 2.41.98 3.76.98 1.42 0 2.56-.34 3.43-1.04.86-.68 1.3-1.58 1.3-2.71 0-1.76-1.68-3.35-5-4.79-6.96-3.07-11.98-6.26-15.05-9.54-3.09-3.27-4.64-7.04-4.64-11.33 0-4.63 1.59-8.64 4.73-11.99 4.49-4.79 10.63-7.18 18.39-7.18m-68.42 33.77c-1.9 0-3.56.7-4.95 2.11-1.41 1.4-2.1 3.07-2.1 5.03s.49 3.37 1.48 4.53c.99 1.14 2.3 1.72 3.96 1.72 3.45 0 5.17-2.63 5.17-7.88 0-2.15-.24-3.59-.75-4.33-.49-.74-1.44-1.14-2.81-1.18Zm4.33-33.84c7.52 0 13.88 1.72 19.1 5.15 2.76 1.84 4.71 3.93 5.81 6.28 1.08 2.35 1.64 5.61 1.64 9.73l-.13 8.7c0 6.04.49 9.95 1.44 11.75.46.86.93 1.4 1.37 1.64.42.24 1.33.44 2.72.64 1.37.2 2.06 1.02 2.06 2.45 0 1.88-.82 3.83-2.5 5.85-1.66 2.03-3.8 3.73-6.43 5.09-3.25 1.72-6.63 2.57-10.17 2.57-4.53 0-8.11-1.4-10.74-4.21-.91-1.02-1.75-1.52-2.54-1.52-.86 0-1.99.48-3.43 1.46-4.31 2.85-9.22 4.27-14.7 4.27s-10.24-1.1-13.73-3.27c-2.28-1.44-4.11-3.33-5.44-5.65-1.35-2.31-2.01-4.73-2.01-7.26 0-4.07 1.81-7.64 5.44-10.77 5.66-4.91 14.13-7.38 25.4-7.42 2.5 0 4.07-.22 4.73-.66.64-.46.95-1.5.95-3.13 0-4.13-.46-7.12-1.41-8.98-.95-1.84-2.5-2.77-4.66-2.77-1.3 0-2.45.36-3.47 1.06-1.02.7-2.28 1.97-3.78 3.85-3.85 4.95-7.87 7.42-12.05 7.42-2.12 0-3.85-.56-5.17-1.7-1.35-1.12-2.01-2.61-2.01-4.43s.82-3.75 2.5-5.63c1.66-1.86 3.91-3.49 6.76-4.91 7.8-3.73 15.96-5.61 24.47-5.61Zm-60.59 15.38v19.75c0 2.33.62 4.25 1.9 5.73 1.28 1.48 2.9 2.21 4.89 2.21 1.68 0 3.91-.7 6.68-2.09.64-.36 1.3-.54 1.95-.54 1.04 0 1.99.58 2.85 1.7.86 1.14 1.28 2.37 1.28 3.69 0 2.41-1.46 4.73-4.4 6.96-6.12 4.71-13.55 7.06-22.28 7.06-6.9 0-12.45-1.76-16.65-5.29-4.18-3.53-6.28-8.18-6.28-13.94V38.06c0-.9-.11-1.46-.35-1.68-.24-.22-.84-.32-1.83-.32h-6.68c-1.26 0-2.06-.18-2.41-.56-.33-.36-.51-1.24-.51-2.59v-2.57c.04-1.18.53-2.03 1.48-2.57l29.67-16.84c.73-.34 1.64-.52 2.72-.52h5.26c1.06 0 1.79.22 2.17.68.35.44.55 1.34.55 2.65v7.88c0 1.18.2 1.94.6 2.29.42.34 1.3.52 2.63.52h11.98c1.59 0 2.63.26 3.12.8.46.52.71 1.64.71 3.35v3.45c0 1.88-.31 3.17-.91 3.89-.6.72-1.7 1.08-3.32 1.08h-11.72c-1.19 0-2.03.2-2.45.58-.44.4-.64 1.14-.64 2.23Zm-76.18-15.32c2.17 0 5.68.42 10.57 1.28.99.16 1.81.24 2.45.24.73 0 2.17-.34 4.27-1.06.99-.34 1.83-.52 2.54-.52 1.99 0 3.98 1.16 6.01 3.45 1.64 1.84 2.98 3.83 4.02 6.02 1.04 2.17 1.55 4.07 1.55 5.67s-.6 2.85-1.81 3.89c-1.22 1.02-2.72 1.54-4.53 1.54-1.5 0-2.85-.32-4.05-.98-1.19-.68-3.1-2.13-5.73-4.39-2.76-2.41-5.06-3.63-6.87-3.63-1.22 0-2.25.4-3.14 1.2-.88.8-1.33 1.76-1.33 2.83 0 1.92 2.03 3.71 6.08 5.39 7.3 2.95 12.89 6.18 16.78 9.7 3.29 2.97 4.93 6.58 4.93 10.87 0 5.43-2.63 9.93-7.91 13.57-4.53 3.15-10.08 4.73-16.65 4.73-1.68 0-4.73-.26-9.2-.76-4.18-.42-6.52-.64-7.05-.64s-1.22.06-1.95.18c-1.24.14-2.14.22-2.72.22-2.03 0-3.63-.46-4.8-1.4-1.77-1.44-3.4-3.71-4.91-6.8-1.53-3.11-2.28-5.77-2.28-7.98 0-3.59 1.55-5.39 4.66-5.39 1.22 0 2.32.36 3.34 1.08 1.02.74 3.14 2.65 6.39 5.77 1.77 1.72 3.23 2.89 4.4 3.53 1.17.64 2.41.98 3.76.98 1.42 0 2.56-.34 3.43-1.04.86-.68 1.3-1.58 1.3-2.71 0-1.76-1.68-3.35-5-4.79-6.96-3.07-11.98-6.26-15.05-9.54-3.09-3.27-4.64-7.04-4.64-11.33 0-4.63 1.59-8.64 4.73-11.99 4.49-4.79 10.63-7.18 18.39-7.18Zm-50-21.56c3.76 0 6.74.64 8.93 1.9 2.21 1.28 3.32 2.97 3.32 5.13 0 2.99-1.66 5.37-5 7.12-5.26 2.77-11.63 4.15-19.1 4.15-3.16 0-5.66-.54-7.52-1.64-2.5-1.4-3.76-3.35-3.76-5.85 0-3.35 2.65-5.98 7.98-7.9 5.39-1.94 10.43-2.91 15.14-2.91Zm12.82 25.59v33.95c0 2.69.27 4.67.82 5.9.53 1.26 1.64 2.39 3.27 3.45 1.33.86 2.23 1.6 2.68 2.19.46.6.69 1.38.69 2.31 0 5.03-7.05 7.54-21.18 7.54-7.6 0-13.62-.56-18.06-1.64-1.53-.4-2.74-1.08-3.67-2.05-.93-.98-1.39-2.07-1.39-3.33 0-1.06.24-1.88.71-2.45.49-.58 1.7-1.52 3.65-2.81 1.33-.9 2.28-2.35 2.83-4.37.57-2.03.86-5.05.86-9.06 0-1.3-.11-3.71-.31-7.22-.18-3.53-.33-5.59-.42-6.16-.24-1.6-1.46-2.83-3.63-3.69-2.67-1.06-4-2.61-4-4.67 0-2.45 1.75-4.29 5.24-5.51 4.84-1.68 10.01-3.09 15.54-4.27 5.53-1.16 9.79-1.74 12.82-1.74 2.39 0 3.56 1.2 3.56 3.61Zm-46.42 17.54.91 20.57c.09 1.56.35 2.71.82 3.45.44.74 1.77 2.17 3.98 4.27.64.62.97 1.5.97 2.63 0 2.57-1.7 4.37-5.13 5.37-3.4 1.02-9.48 1.54-18.26 1.54-5.95 0-10.17-.48-12.62-1.42-2.54-.98-3.82-2.55-3.82-4.73 0-.78.13-1.36.4-1.72.24-.38 1.11-1.28 2.59-2.73 1.72-1.64 2.59-7.08 2.59-16.36 0-5.39-.69-9.36-2.08-11.93-1.13-2.05-3.18-3.09-6.21-3.09s-4.89.84-5.97 2.51c-1.06 1.68-1.61 4.71-1.61 9.12v11.57c0 2.29.18 3.87.49 4.73.33.86 1.39 2.51 3.21 4.97.49.72.71 1.52.71 2.41 0 2.29-1.77 3.99-5.31 5.07-3.54 1.1-9.06 1.64-16.58 1.66-12-.02-17.99-2.25-17.99-6.72 0-.94.18-1.66.55-2.13.35-.5 1.24-1.18 2.61-2.07 1.13-.74 1.83-1.6 2.14-2.55.31-.96.57-3.29.84-7.04.31-4.43.46-9.1.46-13.96 0-2.69-.24-4.45-.69-5.29-.46-.84-1.77-1.86-3.91-3.07-1.86-1.06-2.79-2.33-2.79-3.85s.75-2.83 2.26-3.83c1.53-1 4.62-2.25 9.33-3.77 4.16-1.34 8.13-2.45 11.98-3.37 3.85-.92 6.48-1.36 7.89-1.36 1.3 0 2.39.42 3.27 1.28.88.86 1.33 1.88 1.33 3.03 0 .12-.02.62-.04 1.48-.04.3-.07.58-.07.82 0 1.86.86 2.79 2.59 2.79 1.04 0 2.12-.74 3.29-2.21 3.71-4.83 9.11-7.24 16.2-7.24 5.44 0 10.1 1.28 13.97 3.85 2.72 1.84 4.62 3.99 5.7 6.46 1.08 2.47 1.75 6.1 2.01 10.89Zm-123.51-8.12c-1.9 0-3.4.64-4.55 1.9-1.15 1.28-1.72 2.95-1.72 5.05 0 2.35.49 5.53 1.46 9.56.97 4.05 2.12 7.62 3.47 10.73 1.33 3.19 3.51 4.79 6.54 4.79 3.85 0 5.77-2.19 5.77-6.6 0-3.27-.49-6.98-1.46-11.15s-2.17-7.56-3.54-10.17c-1.41-2.65-3.4-4.01-5.97-4.09Zm5.19-13.51c7.89 0 14.83 1.86 20.78 5.55 4.29 2.65 7.72 6.1 10.3 10.35 2.67 4.45 4.02 9.08 4.02 13.9 0 8.46-4.31 15.64-12.89 21.56-8.2 5.65-17.6 8.48-28.19 8.48s-18.66-2.65-25.05-7.94C169.1 71.18 166 64.48 166 56.22c0-9.2 3.8-16.72 11.38-22.56 7.96-6.16 17.6-9.24 28.96-9.24Zm-79.09.42c2.3 0 3.69.28 4.18.88.51.58.95 2.45 1.35 5.61.2 1.72.88 2.57 1.99 2.57.86 0 1.7-.58 2.48-1.7 3.45-4.87 7.96-7.3 13.53-7.3 3.94 0 7.14 1.14 9.64 3.43 1.22 1.14 2.21 2.59 2.98 4.37.77 1.76 1.17 3.47 1.17 5.11 0 1.84-.49 3.71-1.41 5.65-.95 1.92-2.19 3.51-3.69 4.75-2.76 2.39-6.17 3.57-10.17 3.57-2.21 0-4.05-.34-5.55-1.06-1.48-.7-3.45-2.11-5.86-4.25-.91-.82-1.75-1.24-2.52-1.24-1.22 0-2.01.62-2.37 1.84-.38 1.24-.55 3.81-.55 7.76 0 5.86.24 9.89.71 12.03.31 1.18.73 1.97 1.26 2.43.55.44 1.7.9 3.47 1.36 3.89 1.06 5.84 2.89 5.84 5.51 0 1.6-.64 2.99-1.88 4.17-1.26 1.2-2.92 1.97-5 2.37-4.13.78-10.24 1.18-18.26 1.18s-13.44-.62-17.42-1.82c-3.54-1.1-5.31-2.99-5.31-5.67 0-2.03 1.28-3.85 3.87-5.45 1.26-.74 2.12-1.42 2.61-2.01.46-.6.8-1.44.97-2.49.69-3.53 1.02-10.09 1.02-19.69 0-1.76-.2-3.01-.64-3.77-.42-.76-1.28-1.38-2.59-1.84-3.07-1.1-4.6-2.67-4.6-4.73 0-1.88 1.06-3.49 3.16-4.83 2.12-1.34 5.66-2.67 10.63-4.01 6.65-1.8 12.31-2.69 16.96-2.73ZM51.07 1.29c6.3 0 12.38 1.24 18.26 3.73 2.76 1.18 4.69 1.76 5.77 1.76.77 0 2.01-.16 3.74-.52.57-.12 1.19-.18 1.88-.18 2.25 0 4.22.94 5.9 2.81 4.16 4.51 6.21 10.13 6.21 16.84 0 4.71-1.79 8.16-5.37 10.33-1.95 1.18-4.11 1.76-6.54 1.76-2.19 0-3.98-.42-5.37-1.28-1.37-.86-2.72-2.39-4.02-4.57-1.86-3.07-3.36-5.29-4.53-6.64-1.15-1.34-2.59-2.55-4.27-3.65-4.18-2.63-8.58-3.97-13.15-3.97s-7.98 1.46-10.59 4.35c-2.61 2.91-3.91 6.8-3.91 11.67 0 6.7 1.88 12.83 5.64 18.41 5.08 7.44 12.38 11.15 21.89 11.15 3.49 0 6.96-.52 10.39-1.58 3.45-1.06 6.1-2.41 8-4.09 1.64-1.4 2.98-2.09 4.02-2.09 1.5 0 2.81.62 3.89 1.9 1.06 1.26 1.61 2.79 1.61 4.59 0 2.25-.75 4.79-2.28 7.6-1.5 2.79-3.32 5.01-5.44 6.6-.91.66-2.79 1.24-5.64 1.76-1.64.26-3.82.98-6.54 2.15-6.39 2.77-13.02 4.15-19.94 4.15s-14.39-1.46-21.58-4.39c-8.31-3.39-14.9-8.58-19.74-15.6-4.75-6.82-7.12-13.94-7.12-21.39 0-8.66 2.96-16.54 8.93-23.68 5.17-6.18 11.94-10.91 20.27-14.2 6.34-2.49 12.89-3.73 19.63-3.73Z" style="fill:#fff"/><path d="M612.14 23.2c2.17 0 5.68.42 10.57 1.28.99.16 1.81.24 2.45.24.73 0 2.17-.34 4.27-1.06.99-.34 1.83-.52 2.54-.52 1.99 0 3.98 1.16 6.01 3.45 1.64 1.84 2.98 3.83 4.02 6.02 1.04 2.17 1.55 4.07 1.55 5.67s-.6 2.85-1.81 3.89c-1.22 1.02-2.72 1.54-4.53 1.54-1.5 0-2.85-.32-4.05-.98-1.19-.68-3.1-2.13-5.73-4.39-2.76-2.41-5.06-3.63-6.88-3.63-1.22 0-2.25.4-3.14 1.2-.88.8-1.33 1.76-1.33 2.83 0 1.92 2.03 3.71 6.08 5.39 7.29 2.95 12.89 6.18 16.78 9.7 3.29 2.97 4.93 6.58 4.93 10.87 0 5.43-2.63 9.93-7.91 13.57-4.53 3.15-10.08 4.73-16.65 4.73-1.68 0-4.73-.26-9.2-.76-4.18-.42-6.52-.64-7.05-.64s-1.22.06-1.95.18c-1.24.14-2.14.22-2.72.22-2.03 0-3.63-.46-4.8-1.4-1.77-1.44-3.4-3.71-4.91-6.8-1.53-3.11-2.28-5.77-2.28-7.98 0-3.59 1.55-5.39 4.66-5.39 1.22 0 2.32.36 3.34 1.08 1.02.74 3.14 2.65 6.39 5.77 1.77 1.72 3.23 2.89 4.4 3.53 1.17.64 2.41.98 3.76.98 1.42 0 2.56-.34 3.43-1.04.86-.68 1.3-1.58 1.3-2.71 0-1.76-1.68-3.35-5-4.79-6.96-3.07-11.98-6.26-15.05-9.54-3.1-3.27-4.64-7.04-4.64-11.33 0-4.63 1.59-8.64 4.73-11.99 4.49-4.79 10.63-7.18 18.39-7.18M543.7 56.97c-1.9 0-3.56.7-4.95 2.11-1.41 1.4-2.1 3.07-2.1 5.03s.49 3.37 1.48 4.53c.99 1.14 2.3 1.72 3.96 1.72 3.45 0 5.17-2.63 5.17-7.88 0-2.15-.24-3.59-.75-4.33-.49-.74-1.44-1.14-2.81-1.18Zm4.33-33.83c7.52 0 13.88 1.72 19.1 5.15 2.76 1.84 4.71 3.93 5.81 6.28 1.08 2.35 1.64 5.61 1.64 9.74l-.13 8.7c0 6.04.49 9.95 1.44 11.75.46.86.93 1.4 1.37 1.64.42.24 1.33.44 2.72.64 1.37.2 2.06 1.02 2.06 2.45 0 1.88-.82 3.83-2.5 5.85-1.66 2.03-3.8 3.73-6.43 5.09-3.25 1.72-6.63 2.57-10.17 2.57-4.53 0-8.11-1.4-10.74-4.21-.91-1.02-1.75-1.52-2.54-1.52-.86 0-1.99.48-3.43 1.46-4.31 2.85-9.22 4.27-14.7 4.27s-10.24-1.1-13.73-3.27c-2.28-1.44-4.11-3.33-5.44-5.65-1.35-2.31-2.01-4.73-2.01-7.26 0-4.07 1.81-7.64 5.44-10.77 5.66-4.91 14.13-7.38 25.4-7.42 2.5 0 4.07-.22 4.73-.66.64-.46.95-1.5.95-3.13 0-4.13-.46-7.12-1.41-8.98-.95-1.84-2.5-2.77-4.66-2.77-1.3 0-2.45.36-3.47 1.06s-2.28 1.97-3.78 3.85c-3.85 4.95-7.87 7.42-12.05 7.42-2.12 0-3.85-.56-5.17-1.7-1.35-1.12-2.01-2.61-2.01-4.43s.82-3.75 2.5-5.63c1.66-1.86 3.91-3.49 6.76-4.91 7.8-3.73 15.96-5.61 24.47-5.61Zm-60.59 15.38v19.75c0 2.33.62 4.25 1.9 5.73 1.28 1.48 2.9 2.21 4.89 2.21 1.68 0 3.91-.7 6.68-2.09.64-.36 1.3-.54 1.95-.54 1.04 0 1.99.58 2.85 1.7.86 1.14 1.28 2.37 1.28 3.69 0 2.41-1.46 4.73-4.4 6.96-6.12 4.71-13.55 7.06-22.28 7.06-6.9 0-12.45-1.76-16.65-5.29-4.18-3.53-6.28-8.18-6.28-13.94V36.77c0-.9-.11-1.46-.35-1.68-.24-.22-.84-.32-1.83-.32h-6.68c-1.26 0-2.06-.18-2.41-.56-.33-.36-.51-1.24-.51-2.59v-2.57c.04-1.18.53-2.03 1.48-2.57l29.67-16.84c.73-.34 1.64-.52 2.72-.52h5.26c1.06 0 1.79.22 2.17.68.35.44.55 1.34.55 2.65v7.88c0 1.18.2 1.94.6 2.29.42.34 1.3.52 2.63.52h11.98c1.59 0 2.63.26 3.12.8.46.52.71 1.64.71 3.35v3.45c0 1.88-.31 3.17-.91 3.89-.6.72-1.7 1.08-3.32 1.08h-11.72c-1.19 0-2.03.2-2.45.58-.44.4-.64 1.14-.64 2.23ZM411.26 23.2c2.17 0 5.68.42 10.57 1.28.99.16 1.81.24 2.45.24.73 0 2.17-.34 4.27-1.06.99-.34 1.83-.52 2.54-.52 1.99 0 3.98 1.16 6.01 3.45 1.64 1.84 2.98 3.83 4.02 6.02 1.04 2.17 1.55 4.07 1.55 5.67s-.6 2.85-1.81 3.89c-1.22 1.02-2.72 1.54-4.53 1.54-1.5 0-2.85-.32-4.05-.98-1.19-.68-3.1-2.13-5.73-4.39-2.76-2.41-5.06-3.63-6.88-3.63-1.22 0-2.25.4-3.14 1.2-.88.8-1.33 1.76-1.33 2.83 0 1.92 2.03 3.71 6.08 5.39 7.29 2.95 12.89 6.18 16.78 9.7 3.29 2.97 4.93 6.58 4.93 10.87 0 5.43-2.63 9.93-7.91 13.57C430.55 81.42 425 83 418.43 83c-1.68 0-4.73-.26-9.2-.76-4.18-.42-6.52-.64-7.05-.64s-1.22.06-1.95.18c-1.24.14-2.14.22-2.72.22-2.03 0-3.63-.46-4.8-1.4-1.77-1.44-3.4-3.71-4.91-6.8-1.53-3.11-2.28-5.77-2.28-7.98 0-3.59 1.55-5.39 4.66-5.39 1.22 0 2.32.36 3.34 1.08 1.02.74 3.14 2.65 6.39 5.77 1.77 1.72 3.23 2.89 4.4 3.53 1.17.64 2.41.98 3.76.98 1.42 0 2.56-.34 3.43-1.04.86-.68 1.3-1.58 1.3-2.71 0-1.76-1.68-3.35-5-4.79-6.96-3.07-11.98-6.26-15.05-9.54-3.1-3.27-4.64-7.04-4.64-11.33 0-4.63 1.59-8.64 4.73-11.99 4.49-4.79 10.63-7.18 18.39-7.18Zm-50-21.56c3.76 0 6.74.64 8.93 1.9 2.21 1.28 3.32 2.97 3.32 5.13 0 2.99-1.66 5.37-5 7.12-5.26 2.77-11.63 4.15-19.1 4.15-3.16 0-5.66-.54-7.52-1.64-2.5-1.4-3.76-3.35-3.76-5.85 0-3.35 2.65-5.98 7.98-7.9 5.39-1.94 10.43-2.91 15.14-2.91Zm12.82 25.59v33.95c0 2.69.27 4.67.82 5.9.53 1.26 1.64 2.39 3.27 3.45 1.33.86 2.23 1.6 2.68 2.19.46.6.69 1.38.69 2.31 0 5.03-7.05 7.54-21.18 7.54-7.6 0-13.62-.56-18.06-1.64-1.53-.4-2.74-1.08-3.67-2.05-.93-.98-1.39-2.07-1.39-3.33 0-1.06.24-1.88.71-2.45.49-.58 1.7-1.52 3.65-2.81 1.33-.9 2.28-2.35 2.83-4.37.57-2.03.86-5.05.86-9.06 0-1.3-.11-3.71-.31-7.22-.18-3.53-.33-5.59-.42-6.16-.24-1.6-1.46-2.83-3.63-3.69-2.67-1.06-4-2.61-4-4.67 0-2.45 1.75-4.29 5.24-5.51 4.84-1.68 10.01-3.09 15.54-4.27 5.53-1.16 9.79-1.74 12.82-1.74 2.39 0 3.56 1.2 3.56 3.61Zm-46.43 17.54.91 20.57c.09 1.56.35 2.71.82 3.45.44.74 1.77 2.17 3.98 4.27.64.62.97 1.5.97 2.63 0 2.57-1.7 4.37-5.13 5.37-3.4 1.02-9.48 1.54-18.26 1.54-5.95 0-10.17-.48-12.62-1.42-2.54-.98-3.82-2.55-3.82-4.73 0-.78.13-1.36.4-1.72.24-.38 1.11-1.28 2.59-2.73 1.72-1.64 2.59-7.08 2.59-16.36 0-5.39-.69-9.36-2.08-11.93-1.13-2.05-3.18-3.09-6.21-3.09s-4.89.84-5.97 2.51c-1.06 1.68-1.61 4.71-1.61 9.12v11.57c0 2.29.18 3.87.49 4.73.33.86 1.39 2.51 3.21 4.97.49.72.71 1.52.71 2.41 0 2.29-1.77 3.99-5.31 5.07-3.54 1.1-9.06 1.64-16.58 1.66-12-.02-17.99-2.25-17.99-6.72 0-.94.18-1.66.55-2.13.35-.5 1.24-1.18 2.61-2.07 1.13-.74 1.83-1.6 2.14-2.55.31-.96.57-3.29.84-7.04.31-4.43.46-9.1.46-13.96 0-2.69-.24-4.45-.69-5.29-.46-.84-1.77-1.86-3.91-3.07-1.86-1.06-2.79-2.33-2.79-3.85s.75-2.83 2.26-3.83c1.53-1 4.62-2.25 9.33-3.77 4.16-1.34 8.14-2.45 11.98-3.37 3.85-.92 6.48-1.36 7.89-1.36 1.3 0 2.39.42 3.27 1.28s1.33 1.88 1.33 3.03c0 .12-.02.62-.04 1.48-.04.3-.07.58-.07.82 0 1.86.86 2.79 2.59 2.79 1.04 0 2.12-.74 3.29-2.21 3.71-4.83 9.11-7.24 16.2-7.24 5.44 0 10.1 1.28 13.97 3.85 2.72 1.84 4.62 3.99 5.7 6.46 1.08 2.47 1.75 6.1 2.01 10.89Zm-123.5-8.12c-1.9 0-3.4.64-4.55 1.89-1.15 1.28-1.72 2.95-1.72 5.05 0 2.35.49 5.53 1.46 9.56.97 4.05 2.12 7.62 3.47 10.73 1.33 3.19 3.51 4.79 6.54 4.79 3.85 0 5.77-2.19 5.77-6.6 0-3.27-.49-6.98-1.46-11.15s-2.17-7.56-3.54-10.17c-1.41-2.65-3.4-4.01-5.97-4.09Zm5.19-13.51c7.89 0 14.83 1.86 20.78 5.55 4.29 2.65 7.72 6.1 10.3 10.35 2.67 4.45 4.02 9.08 4.02 13.9 0 8.46-4.31 15.64-12.89 21.56-8.2 5.65-17.6 8.48-28.19 8.48s-18.66-2.65-25.05-7.94c-6.23-5.15-9.33-11.85-9.33-20.11 0-9.2 3.8-16.72 11.38-22.56 7.96-6.16 17.6-9.24 28.96-9.24Zm-79.09.42c2.3 0 3.69.28 4.18.88.51.58.95 2.45 1.35 5.61.2 1.72.88 2.57 1.99 2.57.86 0 1.7-.58 2.48-1.7 3.45-4.87 7.96-7.3 13.53-7.3 3.93 0 7.14 1.14 9.64 3.43 1.22 1.14 2.21 2.59 2.98 4.37.77 1.76 1.17 3.47 1.17 5.11 0 1.84-.49 3.71-1.41 5.65-.95 1.92-2.19 3.51-3.69 4.75-2.76 2.39-6.17 3.57-10.17 3.57-2.21 0-4.05-.34-5.55-1.06-1.48-.7-3.45-2.11-5.86-4.25-.91-.82-1.75-1.24-2.52-1.24-1.22 0-2.01.62-2.37 1.84-.38 1.24-.55 3.81-.55 7.76 0 5.86.24 9.89.71 12.03.31 1.18.73 1.97 1.26 2.43.55.44 1.7.9 3.47 1.36 3.89 1.06 5.84 2.89 5.84 5.51 0 1.6-.64 2.99-1.88 4.17-1.26 1.2-2.92 1.97-5 2.37-4.13.78-10.24 1.18-18.26 1.18s-13.44-.62-17.42-1.82c-3.54-1.1-5.31-2.99-5.31-5.67 0-2.03 1.28-3.85 3.87-5.45 1.26-.74 2.12-1.42 2.61-2.01.46-.6.8-1.44.97-2.49.69-3.53 1.02-10.09 1.02-19.69 0-1.76-.2-3.01-.64-3.77-.42-.76-1.28-1.38-2.59-1.84-3.07-1.1-4.6-2.67-4.6-4.73 0-1.88 1.06-3.49 3.16-4.83 2.12-1.34 5.66-2.67 10.63-4.01 6.65-1.8 12.31-2.69 16.96-2.73ZM54.05 0c6.3 0 12.38 1.24 18.26 3.73 2.76 1.18 4.69 1.76 5.77 1.76.77 0 2.01-.16 3.74-.52.57-.12 1.19-.18 1.88-.18 2.25 0 4.22.94 5.9 2.81 4.16 4.51 6.21 10.13 6.21 16.84 0 4.71-1.79 8.16-5.37 10.33-1.95 1.18-4.11 1.76-6.54 1.76-2.19 0-3.98-.42-5.37-1.28-1.37-.86-2.72-2.39-4.02-4.57-1.86-3.07-3.36-5.29-4.53-6.64-1.15-1.34-2.59-2.55-4.27-3.65-4.18-2.63-8.58-3.97-13.15-3.97s-7.98 1.46-10.59 4.35c-2.61 2.91-3.91 6.8-3.91 11.67 0 6.7 1.88 12.83 5.64 18.41C48.78 58.29 56.08 62 65.59 62c3.49 0 6.96-.52 10.39-1.58 3.45-1.06 6.1-2.41 8-4.09 1.64-1.4 2.98-2.09 4.02-2.09 1.5 0 2.81.62 3.89 1.9 1.06 1.26 1.61 2.79 1.61 4.59 0 2.25-.75 4.79-2.28 7.6-1.5 2.79-3.32 5.01-5.44 6.6-.91.66-2.79 1.24-5.64 1.76-1.64.26-3.82.98-6.54 2.15-6.39 2.77-13.02 4.15-19.94 4.15s-14.39-1.46-21.58-4.39c-8.31-3.39-14.9-8.58-19.74-15.6-4.75-6.82-7.12-13.94-7.12-21.39 0-8.66 2.96-16.54 8.93-23.68 5.17-6.18 11.94-10.91 20.27-14.2C40.76 1.24 47.31 0 54.05 0Z" style="fill:#eb2127"/></g></svg>